PathFileType	4	(X/Y/Z)	5_coords_data.trc
DataRate	CameraRate	NumFrames	NumMarkers	Units	OrigDataRate	OrigDataStartFrame	OrigNumFrames
30.0	30.0	6	21	m	30.0	42	62
Frame#	Time	THUMB_TIP	THUMB_IP	THUMB_MCP	THUMB_CMC	INDEX_TIP	INDEX_DIP	INDEX_PIP	INDEX_MCP	MIDDLE_TIP	MIDDLE_DIP	MIDDLE_PIP	MIDDLE_MCP	RING_TIP	RING_DIP	RING_PIP	RING_MCP	PINKY_TIP	PINKY_DIP	PINKY_PIP	PINKY_MCP	WRIST
X1	Y1	Z1	X2	Y2	Z2	X3	Y3	Z3	X4	Y4	Z4	X5	Y5	Z5	X6	Y6	Z6	X7	Y7	Z7	X8	Y8	Z8	X9	Y9	Z9	X10	Y10	Z10	X11	Y11	Z11	X12	Y12	Z12	X13	Y13	Z13	X14	Y14	Z14	X15	Y15	Z15	X16	Y16	Z16	X17	Y17	Z17	X18	Y18	Z18	X19	Y19	Z19	X20	Y20	Z20	X21	Y21	Z21
40	1.3666666666666607	0.49462588660249907	-0.021456036811016377	-0.17050858351163006	0.49590410726432954	-0.022300929958353533	-0.14758147493882365	0.47940391050437614	-0.02622740066931817	-0.1214826946102574	0.475194714245326	-0.027838605656423265	-0.07710278152626944	0.5326412092322501	-0.024845242861382455	-0.1071340530576045	0.5448240430546483	-0.012086639939617783	-0.11123241999341797	0.5458843384211022	0.012019722066236804	-0.11828712888738133	0.5045395420494394	0.019706686211267366	-0.11156741987442871	0.5357021147351179	-0.021545236284461478	-0.09088700826573912	0.5497533673465405	-0.01028164133213283	-0.09280891585973759	0.5522392198343288	0.018096662428250032	-0.09896537288406548	0.5094883642852422	0.029497650161493527	-0.0927581392387473	0.5362247865718407	-0.01065008267312606	-0.07240930980210622	0.550633317142656	0.00015423133783232235	-0.07322235687484575	0.5540174689541791	0.02470773224520406	-0.07564167262692495	0.5146341378346309	0.0336143030961813	-0.07355671229048011	0.5412331341853901	-0.013683568798599777	-0.057849377728376714	0.5548112851035332	-0.00333843526638522	-0.05657972035539023	0.5527640234482926	0.017557033038314684	-0.05659168038324565	0.517876131840243	0.025629505609399916	-0.05228428479727293	0.4622830810018609	-0.023011742144276925	-0.051989820119430985
41	1.3999999999999937	0.4975469754677214	-0.020511982328590306	-0.16954255403191978	0.4979349366767657	-0.02178764062607419	-0.14660302086299198	0.48033867053668344	-0.025823701997252035	-0.12124751600634437	0.47543713435816115	-0.027927253474413716	-0.07695936844660141	0.5445869987699608	-0.02408268657000512	-0.11006690900479953	0.5524981995065172	-0.008218377920238273	-0.11377320283703149	0.5479943549006829	0.015953608287274434	-0.1190115517706472	0.506261647528236	0.018747562298480736	-0.11099837198051528	0.5478265666648612	-0.0217208026836061	-0.09291163750694738	0.5585529505008948	-0.00725464312683044	-0.09482864493520213	0.5547311020634736	0.021249379791508316	-0.09955344143793178	0.5112642136338065	0.02838319048787019	-0.09207772901761152	0.5475420723854977	-0.011092359425748044	-0.07357708270035816	0.5586286571281973	0.003107625581741047	-0.07424645892492857	0.5565249964115071	0.02786038891190301	-0.07599440003093126	0.5164343800635335	0.03212840518637494	-0.0729534541385436	0.5532907842459126	-0.012530562745269536	-0.059188946806770004	0.5624451982972609	0.0017899378690645618	-0.05715917698451624	0.5549407563461337	0.021389281325746357	-0.056558255967088494	0.5192729966049406	0.023985926544931147	-0.05187298119924236	0.4622830810018609	-0.023011742144276925	-0.051989820119430985
42	1.4333333333333271	0.5004690664288849	-0.01969822347565342	-0.16846279862214036	0.4999813591373513	-0.021414889582993535	-0.14555395318912706	0.4813276697640104	-0.025540815944676054	-0.12098086619500092	0.475675429133121	-0.02806668698698389	-0.07680437752367092	0.5569255220011341	-0.02110270646258494	-0.11321064902742295	0.5596181271172108	-0.003433720964072018	-0.11613585485645778	0.5497131832436537	0.019443593063789844	-0.11938091613974308	0.5081268493906405	0.017569689123527077	-0.11039751952774887	0.561303955785341	-0.020080723340337392	-0.09509729689666269	0.567131670015167	-0.003013764703030941	-0.09675761907261334	0.5569582023198364	0.024122515839704484	-0.09984507487926367	0.5131823979591735	0.02702846452893093	-0.09139626811188077	0.5601237503717612	-0.009725495601098255	-0.07485935796919957	0.5664105110539895	0.007166335479517505	-0.07523709182833188	0.5586028514993572	0.030793823926368535	-0.07621802045615353	0.518355794424816	0.030396120089341894	-0.07237913227119173	0.5665564838680733	-0.008602009431099678	-0.05992536448317884	0.5689184929295901	0.008141798246843801	-0.05726720390914371	0.5563573469137184	0.024931423698867028	-0.056200382954752645	0.5207025314566026	0.022194116155853316	-0.05149668939181948	0.4622830810018609	-0.023011742144276925	-0.05198982011943097
43	1.4666666666666603	0.5032450788499526	-0.019053010507143586	-0.1673264623523372	0.50194432586676	-0.02119859110164546	-0.14448561023186648	0.4823170632987638	-0.025367994728252574	-0.12069051331074918	0.4759156988447957	-0.02823827919713706	-0.0766374316910128	0.5682512316371422	-0.01592029097240788	-0.11613242794364084	0.5656716526240794	0.0018991591036177091	-0.1180851109961088	0.5510767184319381	0.022326699102429348	-0.1193940565732869	0.5100405542078976	0.016227149913738526	-0.10977819366492968	0.5748794084028745	-0.01587424389031411	-0.09718181152844026	0.5748001864461233	0.0021947912107479484	-0.09840806370403793	0.5589011449637128	0.026579254894259496	-0.09983212859304152	0.5151766408070602	0.025465736954396023	-0.09071753946064078	0.5730403144378801	-0.005905303515869709	-0.07614100885970282	0.5733321317394156	0.01211995682590472	-0.07607149430166024	0.5602071475724023	0.033282993376629766	-0.0762731216022063	0.5203074906778775	0.02848145605532504	-0.07183651782777278	0.5785878797506707	-0.0011801410398937229	-0.05979606357641984	0.5735747433055626	0.014929940080770532	-0.056909240189313925	0.5570929730659728	0.027868334496734315	-0.055582131035424545	0.5220974580184281	0.020326917890708618	-0.051186176857838425	0.4622830810018609	-0.023011742144276925	-0.051989820119430985
44	1.4999999999999936	0.5057777706322152	-0.01862191860309581	-0.16620775324231574	0.5037436438713698	-0.02116702868714959	-0.1434616603254902	0.48325541303644537	-0.02532583583415471	-0.12040180949403712	0.4761221330811659	-0.02844121848519643	-0.07647800378440862	0.5777627449438589	-0.009323136471283244	-0.11868938422732295	0.5704701113842692	0.007232697326965742	-0.11953900944487518	0.5521674584331034	0.024462365313538514	-0.11913742630073752	0.5119179319166889	0.014738016879889182	-0.10918510211261798	0.5870590151547727	-0.00921307911043412	-0.09908400666068562	0.5810772053720716	0.007870833376856345	-0.09968224227495567	0.5605288106845524	0.02853876856043791	-0.09958487178040679	0.5171325885403312	0.023753620080450566	-0.090097080750147	0.5845456094183291	0.0003766691444050396	-0.07730914588586366	0.5788994825394022	0.01748747788307059	-0.07672478677036623	0.5613761122675347	0.03517486477213316	-0.07620727507808439	0.5221911388818119	0.02645633945325221	-0.07138586335284935	0.5871196776884622	0.008130715498843033	-0.05893676876732398	0.5764080854646806	0.021201271498366592	-0.05621236830213214	0.5573808711253047	0.029967764215592996	-0.05482465834602945	0.523424607866327	0.018429245911318004	-0.05098822356502272	0.4622830810018609	-0.023011742144276925	-0.05198982011943097
45	1.5333333333333266	0.5079942501608308	-0.018372917610539274	-0.1651465321609571	0.5053263315610311	-0.02128279933052246	-0.1425099511752925	0.48409607002763266	-0.0253985717351366	-0.12012342815949309	0.4762972725674226	-0.02867607981058029	-0.07632472156911506	0.5850239337170126	-0.0023189082911996284	-0.12058744950234368	0.5740727912875592	0.012104914919899956	-0.12042681493330841	0.5530819361511107	0.02582285539824325	-0.11863462558135163	0.5136462891500576	0.01324371948352887	-0.10862307329174775	0.5963755168604034	-0.0013027156346834268	-0.10050240296699314	0.5858434452371073	0.013430722612738033	-0.1004668399077423	0.5618629263296661	0.02993828296421175	-0.09910863735572353	0.5189492598690584	0.022016618117131737	-0.08952675977571582	0.593306955745853	0.008071193339959426	-0.07818927361660494	0.582899280169895	0.02275294431300423	-0.07712791718678988	0.5621690150715904	0.03650735914645131	-0.07600891739078243	0.5238967941674714	0.024472553554784615	-0.07099679254825217	0.591916190434053	0.017090066835713236	-0.05762212851187362	0.5778018139327054	0.026475166298134067	-0.055233764205769725	0.5574080431347738	0.03129699183202561	-0.05394685699771325	0.5246004290805595	0.016635414676488325	-0.05085136569874986	0.4622830810018609	-0.023011742144276925	-0.051989820119431
